#format: frame checksums
#version: 2
#hash: MD5
#tb 0: 1/15
#media_type 0: video
#codec_id 0: rawvideo
#dimensions 0: 320x180
#sar 0: 0/1
#stream#, dts,        pts, duration,     size, hash
0,          0,          0,        1,   172800, b35c3690d10837e09c4a3f50260fcef2
0,          1,          1,        1,   172800, fcfc94100eadd2a49433688789d75715
0,          2,          2,        1,   172800, e7a178b2b73179586facd605c9ba9cef
0,          3,          3,        1,   172800, d53c46e15b8f17c4c7bfb41c21477387
0,          4,          4,        1,   172800, b0fce24e71a7ab7218634667b148ac5f
0,          5,          5,        1,   172800, 36204b6b662e3b46a654e7de7325b3bb
0,          6,          6,        1,   172800, feea9f9b7d0da7e52d4867cb649ab94d
0,          7,          7,        1,   172800, 370a5e6ae886c0e7f1d72a00299dfff6
0,          8,          8,        1,   172800, 1f4b2c51cde5b368362af02a81b89e2c
0,          9,          9,        1,   172800, cf288cad5fb058191cd31451d0e0f6fd
0,         10,         10,        1,   172800, ee0d771428f5b3695262c51b88e1a305
0,         11,         11,        1,   172800, 2ca4818646c0c4747b8326535a0e9291
0,         12,         12,        1,   172800, 6ee718454bc8edf95cb92762094a04f6
0,         13,         13,        1,   172800, 5fb29975daa2f3f9cc15eb0aa472bd3b
0,         14,         14,        1,   172800, 1c7805357c278d4ce40a4fc799547e3c
0,         15,         15,        1,   172800, 614cdb926075f5733b9d34175dca81d4
0,         16,         16,        1,   172800, 8c50468192e7a1e7fcf4af3ad7afd050
0,         17,         17,        1,   172800, d8652e48c8c36b4e1e18f299d3e4530e
0,         18,         18,        1,   172800, aa0c4c9327e25eb4e92c28c272ad9015
0,         19,         19,        1,   172800, 9085e4f82d0ef3c9b1e6e608dbcfa39d
0,         20,         20,        1,   172800, 405efe1cc8ca4c2f9d368245691e04de
0,         21,         21,        1,   172800, 68b54d73d1408f7cfb04ce69be8d0a17
0,         22,         22,        1,   172800, b5fade6ab66b6cdf68de5f413d70a258
0,         23,         23,        1,   172800, 0c6d47f5654b80e7f93bfe0f331e8b31
0,         24,         24,        1,   172800, 02602a83c459ea0989e1f4d974cbcb58
0,         25,         25,        1,   172800, 2ee40c1d17abc396565bfd9d84729ae8
0,         26,         26,        1,   172800, 08252d4647819a6a0d38df171ac62104
0,         27,         27,        1,   172800, 638142d772594920d3a647437657fca9
0,         28,         28,        1,   172800, e472799908dda9c901a7aa4656d1d892
0,         29,         29,        1,   172800, d2a43093d4fa73eb8706b812ad71a8bb
0,         30,         30,        1,   172800, 56bfb30444016b6b8e17aa2d4da3be5d
0,         31,         31,        1,   172800, 3a921a2b6a2acedb27d08f01a267fb8e
0,         32,         32,        1,   172800, 78d81138dd5a719649227a4b6331dbdc
0,         33,         33,        1,   172800, f8c1a061b8a329af1a89cbca73ad8973
0,         34,         34,        1,   172800, a0aa1cf4650d0dc87c157782fd56e7e4
0,         35,         35,        1,   172800, ea8982c73cb392261c52b3d73be87738
0,         36,         36,        1,   172800, 778eb1c4df52e81736807affe537d07b
0,         37,         37,        1,   172800, 2880a40a31541115d1c94c86f6a6747a
0,         38,         38,        1,   172800, 188ed91d452b67d00252faaf2b901fcb
0,         39,         39,        1,   172800, 7f40d3f68846bf64c80b62ce5f0cc144
0,         40,         40,        1,   172800, 2ed9ab393b01bfef639f9af6104d3744
0,         41,         41,        1,   172800, e7badcf6ee5aaaf9349d53d75e3d248c
0,         42,         42,        1,   172800, b3b0d1e0bee9fffd51998c5ba1028099
0,         43,         43,        1,   172800, 24ea0f25b164ad73338197f85ccc7f99
0,         44,         44,        1,   172800, 39196d40e8e4d895fe588dcdeb073b11
